<svg width="42" height="42" viewBox="0 0 42 42" fill="none" xmlns="http://www.w3.org/2000/svg">
<g clip-path="url(#clip0_1_579)">
<path d="M31.6019 5.26455C31.2807 5.04448 30.9187 4.83568 30.5974 4.6156C26.387 2.11572 21.1804 1.28164 16.0824 2.64762C10.9845 4.01361 6.89252 7.33926 4.49608 11.6094C4.28699 11.9716 4.1188 12.3225 3.95065 12.6737C1.99979 16.6495 1.41257 21.3093 2.64742 25.9178C3.88227 30.5263 6.72074 34.268 10.3981 36.7359C10.7193 36.9559 11.0814 37.1647 11.4026 37.3848C15.613 39.8847 20.8197 40.7188 25.9176 39.3528C31.0155 37.9868 35.1075 34.6612 37.5039 30.391C37.713 30.0288 37.8812 29.678 38.0494 29.3267C40.0002 25.351 40.5875 20.6912 39.3526 16.0827C38.1178 11.4741 35.2793 7.73241 31.6019 5.26455ZM38.1093 15.8475L29.8303 18.0659C28.8717 14.6511 27.5406 11.6419 26.0038 9.16869C27.852 8.23623 29.442 7.15465 30.7651 6.05702C34.1921 8.24244 36.8615 11.6797 38.1093 15.8475ZM16.9186 3.64757C19.2601 3.4135 21.9769 5.39589 24.3171 8.74634C22.651 9.5425 20.7888 10.2601 18.831 10.7847L16.9186 3.64757ZM15.8581 3.93173L17.7705 11.0688C15.8021 11.5527 13.8415 11.903 12.0002 12.0466C12.341 7.93385 13.6618 4.87001 15.8581 3.93173ZM18.0546 12.1292L20.3276 20.6121L12.9458 22.5901C12.1014 19.2758 11.7604 16.0449 11.8766 13.2163C13.8403 13.0402 15.9341 12.6974 18.0546 12.1292ZM20.6117 21.6725L22.8847 30.1554C20.7748 30.7644 18.7903 31.5148 17.0426 32.3328C15.5276 29.9412 14.2075 26.973 13.2817 23.6803L20.6227 21.7133L20.6117 21.6725ZM23.1689 31.2158L25.0812 38.3529C22.7398 38.587 20.023 36.6046 17.6828 33.2541C19.3601 32.4986 21.1816 31.7919 23.1689 31.2158ZM26.1418 38.0687L24.2294 30.9316C26.1978 30.4478 28.1584 30.0975 29.9996 29.9539C29.6589 34.0666 28.3381 37.1305 26.1418 38.0687ZM23.9453 29.8713L21.6723 21.3883L29.054 19.4104C29.8985 22.7247 30.2395 25.9556 30.1233 28.7841C28.1596 28.9603 26.0658 29.3031 23.9453 29.8713ZM21.3881 20.328L19.1151 11.845C21.225 11.2361 23.2096 10.4857 24.9573 9.66768C26.4723 12.0593 27.7924 15.0275 28.7182 18.3202L21.3772 20.2872L21.3881 20.328ZM29.72 5.41913C28.4973 6.40229 27.0488 7.35878 25.3933 8.1957C23.7451 5.79624 21.8716 4.02509 20.0647 3.15428C23.4616 2.94354 26.8352 3.78789 29.72 5.41913ZM12.8869 5.07755C11.7278 6.78708 11.0208 9.20563 10.7929 12.1079C8.94101 12.2107 7.20809 12.1068 5.65762 11.8666C7.34066 9.01144 9.84021 6.59338 12.8869 5.07755ZM5.07155 12.9414C6.77712 13.2711 8.68402 13.3724 10.7508 13.2556C10.6565 16.1659 11.0082 19.4372 11.8856 22.874L3.60654 25.0924C2.6033 20.8589 3.19636 16.5474 5.07155 12.9414ZM3.89067 26.1527L12.1697 23.9344C13.1283 27.3492 14.4594 30.3584 15.9962 32.8316C14.148 33.7641 12.558 34.8456 11.2349 35.9433C7.80789 33.7578 5.1385 30.3206 3.89067 26.1527ZM12.28 36.5812C13.5027 35.598 14.9512 34.6415 16.6067 33.8046C18.2549 36.204 20.1284 37.9752 21.9353 38.846C18.5384 39.0567 15.1648 38.2124 12.28 36.5812ZM29.113 36.9227C30.2722 35.2132 30.9792 32.7947 31.2071 29.8924C33.059 29.7895 34.7919 29.8935 36.3424 30.1337C34.6593 32.9888 32.1598 35.4069 29.113 36.9227ZM36.9284 29.0588C35.2229 28.7292 33.316 28.6279 31.2492 28.7447C31.3435 25.8344 30.9918 22.5631 30.1144 19.1263L38.3934 16.9079C39.3967 21.1414 38.8036 25.4529 36.9284 29.0588Z" fill="white"/>
</g>
<defs>
<clipPath id="clip0_1_579">
<rect width="42" height="42" fill="white"/>
</clipPath>
</defs>
</svg>
